<?xml version="1.0" encoding="utf-8"?>
<!-- Generator: Adobe Illustrator 18.0.0, SVG Export Plug-In . SVG Version: 6.00 Build 0)  -->
<!DOCTYPE svg PUBLIC "-//W3C//DTD SVG 1.1//EN" "http://www.w3.org/Graphics/SVG/1.1/DTD/svg11.dtd">
<svg version="1.1" id="Layer_1" xmlns="http://www.w3.org/2000/svg" xmlns:xlink="http://www.w3.org/1999/xlink" x="0px" y="0px"
	 width="1000px" height="1200px" viewBox="-100 -298.2 1000 1200" enable-background="new -100 -298.2 1000 1200"
	 xml:space="preserve">
<g id="g3415">
	<rect id="rect3249" x="328.1" y="-298.9" fill="#FFE600" width="137.7" height="45.3"/>
	<path fill="#FFE600" d="M551-205.4h-0.1v-1.9c-12.9-41.4-47.9-46-85.5-46.2h-26.5H436h-79.6h-0.5h-29.4c-35.9,0.6-67,8.1-78.4,43.5
		v8.1h-0.3v151.6h0.3v4.8c11.4,35.4,42.4,42.9,78.4,43.5h29.4h0.5h82.5c0.2-0.4,0.4-0.8,0.7-1.2h25.8C503-3.5,538-7.8,550.9-46.9
		V-48h0.1L551-205.4L551-205.4z"/>
	<rect id="rect3253" x="306.7" y="-6.9" fill="#FFE600" width="185.5" height="37.1"/>
</g>
<g>
	<circle fill="#3B3939" cx="347.7" cy="-152.8" r="20.1"/>
	<circle fill="#3B3939" cx="452.3" cy="-152.8" r="20.1"/>
	<path fill="#3B3939" d="M442.4-89.4c-6.9,3.2-13.7,6.2-20.9,8.3c-7.1,2.1-14.5,3.4-22.7,3.4c-6,0-12.4-0.7-19.4-2.4
		c-7-1.7-14.6-4.3-23-8.2c-3-1.4-6.5-0.1-7.9,2.9c-1.4,3-0.1,6.5,2.9,7.9c9,4.2,17.4,7.1,25.2,9c7.9,1.9,15.2,2.7,22.2,2.7
		c9.4,0,18.1-1.5,26.1-3.9c8-2.4,15.4-5.6,22.5-8.9c3-1.4,4.2-4.9,2.9-7.9C448.9-89.5,445.4-90.8,442.4-89.4z"/>
</g>
<linearGradient id="SVGID_1_" gradientUnits="userSpaceOnUse" x1="395.0676" y1="947.4241" x2="395.0676" y2="458.6661" gradientTransform="matrix(1 0 0 1 4 -45)">
	<stop  offset="0" style="stop-color:#446DB5"/>
	<stop  offset="0.6061" style="stop-color:#446DB5"/>
	<stop  offset="0.7636" style="stop-color:#628DAD"/>
	<stop  offset="0.903" style="stop-color:#6795B6"/>
</linearGradient>
<path fill="url(#SVGID_1_)" d="M554.7,413.7h-146H164.6v158.8v36.9v176.3v3.7v113.2h224.8V789.3v-3.7V615.8c2.9,0.9,6,1.4,9.2,1.4
	c3.6,0,7-0.6,10.1-1.7v170.2v3.7v113.2h224.8V789.3v-3.7V609.3v-51.7V413.7H554.7L554.7,413.7z"/>
<g>
	<path fill="#426DB5" d="M748.2,363.5l-22.7-132.3L655.9,93.7c0,0-32.7-50.4-86.8-40l66.3,324.8L748.2,363.5z"/>
	<path fill="#ED1F24" d="M642.8,413.7L569,53.5c0-14.7-13.2-26.7-30.1-28.3l0-0.2l-0.2,0.2c-1.2-0.1-2.4-0.2-3.6-0.2H264.4
		c-0.6,0-1.2,0-1.7,0.1l-0.1-0.1l0,0.1c-17.9,0.8-32.2,13.2-32.2,28.5l-71.4,360.2L642.8,413.7L642.8,413.7z"/>
	<g id="cuffs_1_">
		<g>
			<path fill="#32558E" d="M748.2,362.8c-1.4-9.7-27.9-14.4-59.1-10.4c-31.2,4-55.4,15.1-54,24.8c1.4,9.7,27.9,14.4,59.1,10.4
				C725.4,383.7,749.6,372.5,748.2,362.8z"/>
		</g>
	</g>
	<g id="arm_2_">
		<g>
			<path fill="#FFE600" d="M733.5,361.3c0,0-43.1-14.7-82.8,11.5l5.8,59.9l86.1-12.6L733.5,361.3z"/>
		</g>
	</g>
	<g>
		<path fill="#FFE600" d="M700.9,398.8c-42.1,5.7-71.5,44.5-65.8,86.6c3.2,23.3,16.5,42.7,34.9,54.5c1,0.1,9.7,2.1,14.2-0.6
			c14.1-8.4-2.3-29.1-8.8-46.5c-2.7-4.5-4.5-9.6-5.3-15.1c-3-22,12.4-42.3,34.4-45.3c0.3,0,0.6-0.1,1-0.1c0.3,0,0.6-0.1,0.9-0.2
			c22-3,42.3,12.4,45.3,34.4c0.8,5.5,0.3,10.9-1,16c-1.6,18.5-11.9,42.8,3.9,47.2c5.1,1.4,12.9-2.8,13.8-3.2
			c14.6-16.2,22.2-38.5,19-61.8C781.7,422.5,742.9,393,700.9,398.8z"/>
	</g>
	<path fill="#426DB5" d="M164.6,379.6l66.3-324.8c-54.2-10.5-86.8,40-86.8,40L74.5,232.4L51.8,364.7L164.6,379.6z"/>
	<g id="cuffs_2_">
		<g>
			<path fill="#32558E" d="M111,353.5c-31.2-4-57.7,0.7-59.1,10.4c-1.4,9.7,22.7,20.8,54,24.8c31.2,4,57.7-0.7,59.1-10.4
				C166.4,368.6,142.2,357.5,111,353.5z"/>
		</g>
	</g>
	<g id="arm_3_">
		<g>
			<path fill="#FFE600" d="M66.5,362.5l-9,58.7l86.1,12.7l5.8-59.9C109.6,347.8,66.5,362.5,66.5,362.5z"/>
		</g>
	</g>
	<g>
		<path fill="#FFE600" d="M99.1,399.9c42.1,5.7,71.5,44.5,65.8,86.6c-3.2,23.3-16.5,42.7-34.9,54.5c-1,0.1-9.7,2.1-14.2-0.6
			c-14.1-8.4,2.3-29.1,8.8-46.5c2.7-4.5,4.5-9.6,5.3-15.1c3-22-12.4-42.3-34.4-45.3c-0.3,0-0.6-0.1-1-0.1c-0.3,0-0.6-0.1-0.9-0.2
			c-22-3-42.3,12.4-45.3,34.4c-0.8,5.5-0.3,10.9,1,16c1.6,18.5,11.9,42.8-3.9,47.2c-5.1,1.4-12.9-2.8-13.8-3.2
			C17,511.3,9.4,489,12.6,465.7C18.3,423.6,57.1,394.2,99.1,399.9z"/>
	</g>
</g>
<g>
	<path fill="#32558E" d="M167.8,265.4l-70.9-21.5c-1.9-0.6-3.9,0.5-4.4,2.4s0.5,3.9,2.4,4.4l70.9,21.5c1.9,0.6,3.9-0.5,4.4-2.4
		C170.7,268,169.6,266,167.8,265.4"/>
</g>
<g>
	<path fill="#32558E" d="M701.5,237.5l-65.3,35c-1.7,0.9-2.4,3.1-1.5,4.8c0.9,1.7,3.1,2.4,4.8,1.5l65.3-35c1.7-0.9,2.4-3.1,1.5-4.8
		C705.4,237.2,703.2,236.5,701.5,237.5"/>
</g>
<rect x="164" y="830.8" fill="#32558E" width="225.4" height="15.7"/>
<rect x="410.9" y="830.8" fill="#32558E" width="222.5" height="15.7"/>
<linearGradient id="SVGID_2_" gradientUnits="userSpaceOnUse" x1="273.5197" y1="649.6512" x2="273.5197" y2="727.0005" gradientTransform="matrix(1 0 0 1 4 -45)">
	<stop  offset="0" style="stop-color:#000000;stop-opacity:0.57"/>
	<stop  offset="1" style="stop-color:#000000;stop-opacity:0"/>
</linearGradient>
<rect x="163.6" y="604.7" fill="url(#SVGID_2_)" width="227.8" height="77.3"/>
<linearGradient id="SVGID_3_" gradientUnits="userSpaceOnUse" x1="518.014" y1="649.6512" x2="518.014" y2="727.0005" gradientTransform="matrix(1 0 0 1 4 -45)">
	<stop  offset="0" style="stop-color:#000000;stop-opacity:0.57"/>
	<stop  offset="1" style="stop-color:#000000;stop-opacity:0"/>
</linearGradient>
<rect x="410.5" y="604.7" fill="url(#SVGID_3_)" width="222.9" height="77.3"/>
<path fill="#32558E" d="M614,413.7H185.1h-20.8v62.5h20.8h189.1v145.7c0,14,11.4,25.4,25.4,25.4c14,0,25.4-11.4,25.4-25.4V476.2H614
	h20.6v-62.5H614z"/>
<linearGradient id="SVGID_4_" gradientUnits="userSpaceOnUse" x1="635.1726" y1="107.9108" x2="635.1726" y2="185.2578" gradientTransform="matrix(-1 0 0 -1 1159.8281 938.7109)">
	<stop  offset="0" style="stop-color:#FFFFFF;stop-opacity:0.57"/>
	<stop  offset="8.989999e-02" style="stop-color:#E0E1E2;stop-opacity:0.5187"/>
	<stop  offset="0.2821" style="stop-color:#A9ABAD;stop-opacity:0.4092"/>
	<stop  offset="0.4649" style="stop-color:#7F8083;stop-opacity:0.305"/>
	<stop  offset="0.6331" style="stop-color:#5D5E60;stop-opacity:0.2091"/>
	<stop  offset="0.7835" style="stop-color:#414042;stop-opacity:0.1234"/>
	<stop  offset="0.9109" style="stop-color:#19191A;stop-opacity:5.080000e-02"/>
	<stop  offset="1" style="stop-color:#000000;stop-opacity:0"/>
</linearGradient>
<rect x="410.9" y="753.5" opacity="0.45" fill="url(#SVGID_4_)" enable-background="new    " width="227.4" height="77.3"/>
<linearGradient id="SVGID_5_" gradientUnits="userSpaceOnUse" x1="882.1038" y1="107.9108" x2="882.1038" y2="185.2578" gradientTransform="matrix(-1 0 0 -1 1159.8281 938.7109)">
	<stop  offset="0" style="stop-color:#FFFFFF;stop-opacity:0.57"/>
	<stop  offset="8.989999e-02" style="stop-color:#E0E1E2;stop-opacity:0.5187"/>
	<stop  offset="0.2821" style="stop-color:#A9ABAD;stop-opacity:0.4092"/>
	<stop  offset="0.4649" style="stop-color:#7F8083;stop-opacity:0.305"/>
	<stop  offset="0.6331" style="stop-color:#5D5E60;stop-opacity:0.2091"/>
	<stop  offset="0.7835" style="stop-color:#414042;stop-opacity:0.1234"/>
	<stop  offset="0.9109" style="stop-color:#19191A;stop-opacity:5.080000e-02"/>
	<stop  offset="1" style="stop-color:#000000;stop-opacity:0"/>
</linearGradient>
<rect x="164" y="753.5" opacity="0.45" fill="url(#SVGID_5_)" enable-background="new    " width="227.4" height="77.3"/>
</svg>
