<?xml version="1.0" encoding="utf-8"?>
<!-- Generator: Adobe Illustrator 18.0.0, SVG Export Plug-In . SVG Version: 6.00 Build 0)  -->
<!DOCTYPE svg PUBLIC "-//W3C//DTD SVG 1.1//EN" "http://www.w3.org/Graphics/SVG/1.1/DTD/svg11.dtd" [
	<!ENTITY ns_extend "http://ns.adobe.com/Extensibility/1.0/">
	<!ENTITY ns_ai "http://ns.adobe.com/AdobeIllustrator/10.0/">
	<!ENTITY ns_graphs "http://ns.adobe.com/Graphs/1.0/">
	<!ENTITY ns_vars "http://ns.adobe.com/Variables/1.0/">
	<!ENTITY ns_imrep "http://ns.adobe.com/ImageReplacement/1.0/">
	<!ENTITY ns_sfw "http://ns.adobe.com/SaveForWeb/1.0/">
	<!ENTITY ns_custom "http://ns.adobe.com/GenericCustomNamespace/1.0/">
	<!ENTITY ns_adobe_xpath "http://ns.adobe.com/XPath/1.0/">
]>
<svg version="1.1" id="Layer_1" xmlns:x="&ns_extend;" xmlns:i="&ns_ai;" xmlns:graph="&ns_graphs;"
	 xmlns="http://www.w3.org/2000/svg" xmlns:xlink="http://www.w3.org/1999/xlink" x="0px" y="0px" width="1000px" height="1200px"
	 viewBox="0 0 1000 1200" enable-background="new 0 0 1000 1200" xml:space="preserve">
<metadata>
	<sfw  xmlns="&ns_sfw;">
		<slices></slices>
		<sliceSourceBounds  width="776.2" height="1201.5" bottomLeftOrigin="true" x="241.7" y="-204.8"></sliceSourceBounds>
		<optimizationSettings>
			<targetSettings  targetSettingsID="0" fileFormat="PNG24Format">
				<PNG24Format  transparency="true" interlaced="false" filtered="false" noMatteColor="false" matteColor="#FFFFFF">
					</PNG24Format>
			</targetSettings>
		</optimizationSettings>
	</sfw>
</metadata>
<g>
	<g id="g3415">
		<rect id="rect3249" x="446.9" y="-0.8" fill="#FFE600" width="137.7" height="45.3"/>
		<path fill="#FFE600" d="M669.8,92.7L669.8,92.7l-0.1-1.9c-12.9-41.4-47.9-46-85.5-46.2h-26.5h-2.9h-79.6h-0.5h-29.4
			c-35.9,0.6-67,8.1-78.4,43.5v8.1h-0.3v151.6h0.3v4.8c11.4,35.4,42.4,42.9,78.4,43.5h29.4h0.5h82.5c0.2-0.4,0.4-0.8,0.7-1.2h25.8
			c37.6-0.3,72.6-4.6,85.5-43.7v-1.1h0.1V92.7L669.8,92.7z"/>
		<rect id="rect3253" x="425.5" y="291.2" fill="#FFE600" width="185.5" height="37.1"/>
	</g>
	<g>
		<circle fill="#3B3939" cx="466.5" cy="145.3" r="20.1"/>
		<circle fill="#3B3939" cx="571.1" cy="145.3" r="20.1"/>
		<path fill="#3B3939" d="M561.2,208.7c-6.9,3.2-13.7,6.2-20.9,8.3c-7.1,2.1-14.5,3.4-22.7,3.4c-6,0-12.4-0.7-19.4-2.4
			c-7-1.7-14.6-4.3-23-8.2c-3-1.4-6.5-0.1-7.9,2.9s-0.1,6.5,2.9,7.9c9,4.2,17.4,7.1,25.2,9c7.9,1.9,15.2,2.7,22.2,2.7
			c9.4,0,18.1-1.5,26.1-3.9s15.4-5.6,22.5-8.9c3-1.4,4.2-4.9,2.9-7.9C567.7,208.6,564.2,207.3,561.2,208.7z"/>
	</g>
	
		<linearGradient id="SVGID_1_" gradientUnits="userSpaceOnUse" x1="513.8499" y1="-45.75" x2="513.8499" y2="443.1501" gradientTransform="matrix(1 0 0 -1 4 1155)">
		<stop  offset="0" style="stop-color:#446DB5"/>
		<stop  offset="0.6061" style="stop-color:#446DB5"/>
		<stop  offset="0.7636" style="stop-color:#628DAD"/>
		<stop  offset="0.903" style="stop-color:#6795B6"/>
	</linearGradient>
	<path fill="url(#SVGID_1_)" d="M673.5,711.8h-146H283.4v158.8v36.9v176.3v3.7v113.2h224.8v-113.3v-3.7V913.9c2.9,0.9,6,1.4,9.2,1.4
		c3.6,0,7-0.6,10.1-1.7v170.2v3.7v113.2h224.8v-113.3v-3.7V907.4v-51.7V711.8H673.5L673.5,711.8z"/>
	<g>
		<path fill="#426DB5" d="M867,661.6l-22.7-132.3l-69.6-137.5c0,0-32.7-50.4-86.8-40l66.3,324.8L867,661.6z"/>
		<path fill="#ED1F24" d="M761.6,711.8l-73.8-360.2c0-14.7-13.2-26.7-30.1-28.3v-0.2l-0.2,0.2c-1.2-0.1-2.4-0.2-3.6-0.2H383.2
			c-0.6,0-1.2,0-1.7,0.1l-0.1-0.1v0.1c-17.9,0.8-32.2,13.2-32.2,28.5L277.8,712L761.6,711.8L761.6,711.8z"/>
		<g id="cuffs_1_">
			<g>
				<path fill="#32558E" d="M867,660.9c-1.4-9.7-27.9-14.4-59.1-10.4c-31.2,4-55.4,15.1-54,24.8s27.9,14.4,59.1,10.4
					C844.2,681.8,868.4,670.6,867,660.9z"/>
			</g>
		</g>
		<g id="arm_2_">
			<g>
				<path fill="#FFE600" d="M852.3,659.4c0,0-43.1-14.7-82.8,11.5l5.8,59.9l86.1-12.6L852.3,659.4z"/>
			</g>
		</g>
		<g>
			<path fill="#FFE600" d="M819.7,696.9c-42.1,5.7-71.5,44.5-65.8,86.6c3.2,23.3,16.5,42.7,34.9,54.5c1,0.1,9.7,2.1,14.2-0.6
				c14.1-8.4-2.3-29.1-8.8-46.5c-2.7-4.5-4.5-9.6-5.3-15.1c-3-22,12.4-42.3,34.4-45.3c0.3,0,0.6-0.1,1-0.1c0.3,0,0.6-0.1,0.9-0.2
				c22-3,42.3,12.4,45.3,34.4c0.8,5.5,0.3,10.9-1,16c-1.6,18.5-11.9,42.8,3.9,47.2c5.1,1.4,12.9-2.8,13.8-3.2
				c14.6-16.2,22.2-38.5,19-61.8C900.5,720.6,861.7,691.1,819.7,696.9z"/>
		</g>
		<path fill="#426DB5" d="M283.4,677.8L349.7,353c-54.2-10.5-86.8,40-86.8,40l-69.6,137.6l-22.7,132.3L283.4,677.8z"/>
		<g id="cuffs_2_">
			<g>
				<path fill="#32558E" d="M229.8,651.6c-31.2-4-57.7,0.7-59.1,10.4c-1.4,9.7,22.7,20.8,54,24.8c31.2,4,57.7-0.7,59.1-10.4
					C285.2,666.8,261,655.6,229.8,651.6z"/>
			</g>
		</g>
		<g id="arm_3_">
			<g>
				<path fill="#FFE600" d="M185.3,660.6l-9,58.7l86.1,12.7l5.8-59.9C228.4,645.9,185.3,660.6,185.3,660.6z"/>
			</g>
		</g>
		<g>
			<path fill="#FFE600" d="M217.9,698c42.1,5.7,71.5,44.5,65.8,86.6c-3.2,23.3-16.5,42.7-34.9,54.5c-1,0.1-9.7,2.1-14.2-0.6
				c-14.1-8.4,2.3-29.1,8.8-46.5c2.7-4.5,4.5-9.6,5.3-15.1c3-22-12.4-42.3-34.4-45.3c-0.3,0-0.6-0.1-1-0.1c-0.3,0-0.6-0.1-0.9-0.2
				c-22-3-42.3,12.4-45.3,34.4c-0.8,5.5-0.3,10.9,1,16c1.6,18.5,11.9,42.8-3.9,47.2c-5.1,1.4-12.9-2.8-13.8-3.2
				c-14.6-16.3-22.2-38.6-19-61.9C137.1,721.8,175.9,692.3,217.9,698z"/>
		</g>
	</g>
	<g>
		<path fill="#32558E" d="M286.6,563.5L215.7,542c-1.9-0.6-3.9,0.5-4.4,2.4c-0.5,1.9,0.5,3.9,2.4,4.4l70.9,21.5
			c1.9,0.6,3.9-0.5,4.4-2.4C289.5,566.1,288.4,564.1,286.6,563.5"/>
	</g>
	<g>
		<path fill="#32558E" d="M820.3,535.6l-65.3,35c-1.7,0.9-2.4,3.1-1.5,4.8c0.9,1.7,3.1,2.4,4.8,1.5l65.3-35c1.7-0.9,2.4-3.1,1.5-4.8
			C824.2,535.3,822,534.6,820.3,535.6"/>
	</g>
	<rect x="282.8" y="1128.9" fill="#32558E" width="225.4" height="15.7"/>
	<rect x="529.7" y="1128.9" fill="#32558E" width="222.5" height="15.7"/>
	
		<linearGradient id="SVGID_2_" gradientUnits="userSpaceOnUse" x1="392.2999" y1="252.1501" x2="392.2999" y2="174.8501" gradientTransform="matrix(1 0 0 -1 4 1155)">
		<stop  offset="0" style="stop-color:#000000;stop-opacity:0.57"/>
		<stop  offset="1" style="stop-color:#000000;stop-opacity:0"/>
	</linearGradient>
	<rect x="282.4" y="902.8" fill="url(#SVGID_2_)" width="227.8" height="77.3"/>
	
		<linearGradient id="SVGID_3_" gradientUnits="userSpaceOnUse" x1="636.7499" y1="252.1501" x2="636.7499" y2="174.8501" gradientTransform="matrix(1 0 0 -1 4 1155)">
		<stop  offset="0" style="stop-color:#000000;stop-opacity:0.57"/>
		<stop  offset="1" style="stop-color:#000000;stop-opacity:0"/>
	</linearGradient>
	<rect x="529.3" y="902.8" fill="url(#SVGID_3_)" width="222.9" height="77.3"/>
	<path fill="#32558E" d="M732.8,711.8H303.9h-20.8v62.5h20.8H493V920c0,14,11.4,25.4,25.4,25.4c14,0,25.4-11.4,25.4-25.4V774.3h189
		h20.6v-62.5H732.8z"/>
	
		<linearGradient id="SVGID_4_" gradientUnits="userSpaceOnUse" x1="294.4283" y1="982.239" x2="294.4283" y2="904.939" gradientTransform="matrix(-1 0 0 1 937.8281 146.7109)">
		<stop  offset="0" style="stop-color:#FFFFFF;stop-opacity:0.57"/>
		<stop  offset="8.989999e-02" style="stop-color:#E0E1E2;stop-opacity:0.5187"/>
		<stop  offset="0.2821" style="stop-color:#A9ABAD;stop-opacity:0.4092"/>
		<stop  offset="0.4649" style="stop-color:#7F8083;stop-opacity:0.305"/>
		<stop  offset="0.6331" style="stop-color:#5D5E60;stop-opacity:0.2091"/>
		<stop  offset="0.7835" style="stop-color:#414042;stop-opacity:0.1234"/>
		<stop  offset="0.9109" style="stop-color:#19191A;stop-opacity:5.080000e-02"/>
		<stop  offset="1" style="stop-color:#000000;stop-opacity:0"/>
	</linearGradient>
	<rect x="529.7" y="1051.7" opacity="0.45" fill="url(#SVGID_4_)" enable-background="new    " width="227.4" height="77.3"/>
	
		<linearGradient id="SVGID_5_" gradientUnits="userSpaceOnUse" x1="541.3282" y1="982.239" x2="541.3282" y2="904.939" gradientTransform="matrix(-1 0 0 1 937.8281 146.7109)">
		<stop  offset="0" style="stop-color:#FFFFFF;stop-opacity:0.57"/>
		<stop  offset="8.989999e-02" style="stop-color:#E0E1E2;stop-opacity:0.5187"/>
		<stop  offset="0.2821" style="stop-color:#A9ABAD;stop-opacity:0.4092"/>
		<stop  offset="0.4649" style="stop-color:#7F8083;stop-opacity:0.305"/>
		<stop  offset="0.6331" style="stop-color:#5D5E60;stop-opacity:0.2091"/>
		<stop  offset="0.7835" style="stop-color:#414042;stop-opacity:0.1234"/>
		<stop  offset="0.9109" style="stop-color:#19191A;stop-opacity:5.080000e-02"/>
		<stop  offset="1" style="stop-color:#000000;stop-opacity:0"/>
	</linearGradient>
	<rect x="282.8" y="1051.7" opacity="0.45" fill="url(#SVGID_5_)" enable-background="new    " width="227.4" height="77.3"/>
</g>
</svg>
